<?xml version="1.0" encoding="utf-8"?>
<!-- Generator: Adobe Illustrator 19.0.0, SVG Export Plug-In . SVG Version: 6.00 Build 0)  -->
<svg version="1.1" id="Layer_1" xmlns="http://www.w3.org/2000/svg" xmlns:xlink="http://www.w3.org/1999/xlink" x="0px" y="0px"
	 viewBox="131 -131 512 512" style="enable-background:new 131 -131 512 512;" xml:space="preserve">
<path d="M617.8-131H156.2c-14,0-25.2,11.2-25.2,25.2v461.6c0,14,11.2,25.2,25.2,25.2h461.6c14,0,25.2-11.2,25.2-25.2v-461.6
	C643-119.8,631.8-131,617.8-131z M437.1,283.2c-8.4,1.8-11.2-2.8-11.2-7.5c0-5.6,0-23.4,0-44.8c0-14.9-4.7-25.1-10.3-29.8
	c34.5-4.7,71.8-17.7,71.8-80.2c0-17.7-5.6-32.6-15.9-43.8c0.9-3.7,6.5-20.5-1.9-42.9c0,0-13.1-3.7-42.9,16.8
	c-12.2-3.7-26.1-5.6-39.2-5.6c-13.1,0-27.1,1.9-39.2,5.6c-30.7-21.5-43.8-16.8-43.8-16.8c-9.4,22.4-3.8,39.2-1.9,42.9
	c-9.4,12.1-15.9,26.1-15.9,43.8c0,62.5,36.4,76.5,71.8,80.2c-4.7,3.7-8.4,11.1-10.3,21.4c-8.4,4.6-31.7,12.1-45.7-13.1
	c0,0-8.3-15.9-24.2-16.8c0,0-14.9,0-0.9,10.3c0,0,10.2,4.6,17.7,23.3c0,0,9.4,30.7,53.2,21.4c0,14,0,24.3,0,28s-2.8,9.3-10.2,7.5
	c-63.4-21.5-108.2-82.1-108.2-153.9C229.9,39.7,301-33,387.7-33s157.6,72.8,157.6,162.3C545.3,201.1,499.6,261.8,437.1,283.2z"/>
</svg>
